# xmcd
#
# Track frame offsets: 
#        150
#        20313
#        41097
#        65739
#        86533
#        105177
#        120116
#        141330
#        164684
#        181415
#        207664
#        230019
#        249705
#        294649
#        307768
#        343446
#
# Disc length: 4797 seconds
#
# Revision: 0
# Processed by: cddbd v1.5.1PL0 Copyright (c) Steve Scherf et al.
# Submitted via: ExactAudioCopy v0.95a5
#
DISCID=ec12bb10
DTITLE=Gladys Knight and the Pips - The Best of Gladys Knight and the Pips
DYEAR=2001
DGENRE=Soul
TTITLE0=Landlord
TTITLE1=Taste of Bitter Love
TTITLE2=Still Such a Thing
TTITLE3=Bourgie Bourgie
TTITLE4=I Will Fight
TTITLE5=A Friend of Mine
TTITLE6=Save the Overtime (for Me)
TTITLE7=You're Number One (in my Book)
TTITLE8=Hero (Wind Beneath my Wings)
TTITLE9=When You're Far Away
TTITLE10=My Time
TTITLE11=Keep Givin' Me Love
TTITLE12=Medley (live at the Roxy)
TTITLE13=Midnight Train to Georgia (live)
TTITLE14=I Heard it through the Grapvine
TTITLE15=Data Track - Essay and Photos
EXTD=
EXTT0=
EXTT1=
EXTT2=
EXTT3=
EXTT4=
EXTT5=
EXTT6=
EXTT7=
EXTT8=
EXTT9=
EXTT10=
EXTT11=
EXTT12=
EXTT13=
EXTT14=
EXTT15=
PLAYORDER=
